# xmcd
#
# Track frame offsets: 
#        150
#        17006
#        34881
#        53534
#        74961
#        94176
#        116798
#        137992
#        158126
#        174994
#
# Disc length: 2563 seconds
#
# Revision: 0
# Processed by: cddbd v1.5PL3 Copyright (c) Steve Scherf et al.
# Submitted via: ExactAudioCopy v0.95a5
#
DISCID=8b0a010a
DTITLE=Casiopea - The Soundgraphy
DYEAR=1984
DGENRE=Fusion
TTITLE0=The Soundgraphy
TTITLE1=Gypsy WInd
TTITLE2=Eyes of the Mind
TTITLE3=Sunnyside Feelin'
TTITLE4=Asayake
TTITLE5=Mid-Manhattan
TTITLE6=Looking Up
TTITLE7=Misty Lady
TTITLE8=What Can't Speak Can't Lie
TTITLE9=Fabby Dabby
EXTD=
EXTT0=
EXTT1=
EXTT2=
EXTT3=
EXTT4=
EXTT5=
EXTT6=
EXTT7=
EXTT8=
EXTT9=
PLAYORDER=
